<svg viewBox="0 0 100 60" xmlns="http://www.w3.org/2000/svg" xml:space="preserve" version="1.1">
 <metadata id="metadata10734">image/svg+xml</metadata>
 <defs id="defs10732">
 </defs>
  <g stroke="null" opacity="0.9" id="cloud" fill="#ffffff" class="cloud-shape">
   <path stroke="none" fill-rule="nonzero" id="svg_7" d="m80.72634,54.99671l-61.84889,0c-8.78305,0 -15.9042,-7.12116 -15.9042,-15.9042c0,-8.78375 7.12116,-15.9042 15.9042,-15.9042l61.84889,0c8.78375,0 15.9042,7.12045 15.9042,15.9042c0,8.78305 -7.12045,15.9042 -15.9042,15.9042"/>
   <path stroke="none" fill-rule="nonzero" id="svg_8" d="m82.96151,22.83557c0,10.4421 -8.46565,18.90775 -18.90776,18.90775c-10.44281,0 -18.90846,-8.46565 -18.90846,-18.90775c0,-10.44281 8.46565,-18.90776 18.90846,-18.90776c10.4421,0 18.90776,8.46494 18.90776,18.90776"/>
   <path stroke="none" fill-rule="nonzero" id="svg_9" d="m59.45618,27.78376c0,11.22321 -9.09831,20.32152 -20.32153,20.32152c-11.22321,0 -20.32152,-9.09831 -20.32152,-20.32152c0,-11.22392 9.09831,-20.32152 20.32152,-20.32152c11.22321,0 20.32153,9.0976 20.32153,20.32152"/>
  </g>
</svg>