<svg xmlns="http://www.w3.org/2000/svg" viewBox="0 0 113 18"><path fill="#fff" d="M24.8 0h-.5c-.2 0-22 3.6-22.8 3.7S0 4.6 0 5.5c0 .5.2 1 .6 1.3l5.2 3.7 13.7-5.9-11.8 7.2 7.5 5.3c.3.2.6.2.9.2.6 0 1.2-.3 1.5-.8l8.6-13.8c.2-.3.3-.6.3-1 0-.9-.8-1.7-1.7-1.7zM7.7 15.6l2.2-1.1-2.2-1.6zM41.9 9l-5.2-7.3H33v15.7h4.7V9.9l5.2 7.5h3.7V1.7h-4.7zM58 7.1c-.6-1.1-1.8-1.7-3.4-1.7-3.1 0-5.5 2.6-5.5 6.1 0 3.6 2.4 6.1 5.5 6.1 1.5 0 2.7-.6 3.4-1.7v1.5h4.6V5.6H58v1.5zm-2.1 7c-1.3 0-2.2-1.1-2.2-2.6s.8-2.6 2.2-2.6 2.2 1.1 2.2 2.6-.8 2.6-2.2 2.6zM73.1 12c0 .9-.2 2-1.4 2s-1.4-1.1-1.4-2V5.6h-4.6v6.9c0 1.9.4 5.1 4.1 5.1 1.6 0 2.6-.6 3.3-1.7v1.5h4.6V5.6h-4.6V12zm21.2-3.1c.6 0 1.5.2 2.5 1L99 7.2c-1.3-1.3-3.2-1.8-5-1.8-4 0-6.9 2.7-6.9 6.1 0 3.4 2.9 6.1 6.9 6.1 1.7 0 3.7-.6 5-1.8l-2.2-2.7c-.9.8-1.9 1-2.5 1-1.5 0-2.6-1.1-2.6-2.6s1-2.6 2.6-2.6zm14.6-3.5c-1.6 0-2.6.6-3.3 1.7V1.2H101v16.2h4.6V11c0-.9.2-2 1.4-2s1.4 1.1 1.4 2v6.4h4.6v-6.9c0-1.9-.4-5.1-4.1-5.1zm-24.6 8.1c-.2-.2-.5-.4-.8-.5-.3-.1-.6-.2-.9-.2-.3 0-.6.1-.9.2-.3.1-.6.3-.8.5-.2.2-.4.5-.5.8-.1.3-.2.6-.2.9 0 .3.1.6.2.9.1.3.3.6.5.8.2.2.5.4.8.5.3.1.6.2.9.2.3 0 .6-.1.9-.2.3-.1.6-.3.8-.5.2-.2.4-.5.5-.8.1-.3.2-.6.2-.9 0-.3-.1-.6-.2-.9-.1-.4-.3-.6-.5-.8z"/></svg>