<svg id="Ebene_1" data-name="Ebene 1" xmlns="http://www.w3.org/2000/svg" xmlns:xlink="http://www.w3.org/1999/xlink" viewBox="0 0 1440.012 465.732"><defs><style>.cls-1{fill:#fff;}.cls-2{fill:url(#Unbenannter_Verlauf_13);}</style><linearGradient id="Unbenannter_Verlauf_13" x1="141.09659" y1="-22.97525" x2="217.07208" y2="175.81934" gradientTransform="matrix(1, 0, 0, -1, 0, 273.83679)" gradientUnits="userSpaceOnUse"><stop offset="0" stop-color="#005b50"/><stop offset="1" stop-color="#20d382"/></linearGradient></defs><path class="cls-1" d="M317.58427,334.97026a16.71413,16.71413,0,0,0,3.25018-10.24084A16.45684,16.45684,0,0,0,315.865,312.45c-3.32044-3.25019-7.68616-4.85138-13.07556-4.85138h-18.9112v50.12366h6.82V341.71153h11.67548l10.06164,16.01075h6.96l-10.66085-16.78083A16.37394,16.37394,0,0,0,317.58427,334.97026Zm-6.99488-2.10425a11.72731,11.72731,0,0,1-8.46051,3.35541h-11.4306V313.11937h11.4306a11.55544,11.55544,0,0,1,8.52909,19.67835l-.06861.06829Z"/><path class="cls-1" d="M411.62193,325.3195c-2.69489-4.65008-8.60041-7.48486-16.0503-7.48486a18.31562,18.31562,0,0,0-9.64593,2.62464,18.85091,18.85091,0,0,0-6.96,7.275,21.82165,21.82165,0,0,0,0,20.62158,18.80976,18.80976,0,0,0,16.60589,9.86041q12.32951,0,16.0503-7.48486l.24481,6.99487h6.14636V318.36839h-6.14636Zm-4.23041,23.1413a13.93134,13.93134,0,0,1-10.21015,4.26532,13.60216,13.60216,0,0,1-10.13586-4.2301,15.12066,15.12066,0,0,1,0-20.90619,13.602,13.602,0,0,1,10.13586-4.2301,13.9049,13.9049,0,0,1,10.24515,4.2301,15.03087,15.03087,0,0,1-.035,20.871Z"/><path class="cls-1" d="M447.50742,323.26363a13.36373,13.36373,0,0,1,11.74591,6.46118l5.72614-2.48474a18.60013,18.60013,0,0,0-7.23547-6.88568,21.16615,21.16615,0,0,0-10.23658-2.5152,21.60916,21.60916,0,0,0-10.35,2.5152,20.12869,20.12869,0,0,0-.035,35.34643,21.72533,21.72533,0,0,0,10.385,2.51544,21.266,21.266,0,0,0,10.23658-2.51544,18.31333,18.31333,0,0,0,7.23547-6.855l-5.72614-2.51544a13.44534,13.44534,0,0,1-11.74591,6.4964,13.65224,13.65224,0,0,1-10.17944-4.25653,15.35621,15.35621,0,0,1,0-21.08539A13.65386,13.65386,0,0,1,447.50742,323.26363Z"/><path class="cls-1" d="M496.74088,317.84209c-7.51983,0-13.11053,2.76031-15.80511,7.47607V304.03172h-6.435V357.7249h6.435V338.04369a14.813,14.813,0,0,1,3.88006-10.52515,13.00828,13.00828,0,0,1,9.93458-4.15137c8.25036,0,11.81134,5.13581,11.81134,14.67652V357.7249h6.3955V338.04369q0-9.803-3.84082-14.99585Q505.28441,317.85094,496.74088,317.84209Z"/><path class="cls-1" d="M561.71253,352.20042,549.442,318.363h-6.92044L558.388,358.94591c-1.26,3.644-5.90576,5.94934-12.58136,6.08923l.385,4.78577c9.646.385,15.591-3.84967,19.22629-12.4762l15.4508-38.98169h-6.92041Z"/><path class="cls-1" d="M605.16242,317.84026a21.56325,21.56325,0,0,0-10.34149,2.51544,20.126,20.126,0,0,0-.04382,35.34643,22.25027,22.25027,0,0,0,25.07068-3.1145,20.32122,20.32122,0,0,0,.38568-28.7359q-.19025-.19542-.38568-.38568A21.69521,21.69521,0,0,0,605.16242,317.84026Zm10.21015,30.6568a14.43122,14.43122,0,0,1-20.40882.0072l-.0072-.0072a15.12032,15.12032,0,0,1,0-20.906,13.75585,13.75585,0,0,1,10.20587-4.2301,13.90547,13.90547,0,0,1,10.24512,4.2301A15.075,15.075,0,0,1,615.37257,348.49706Z"/><path class="cls-1" d="M665.6537,338.04851c0,4.366-1.12006,7.89606-3.39039,10.59088a11.66321,11.66321,0,0,1-9.47534,4.08594c-7.55023,0-10.69549-5.0658-10.69549-14.67682V318.363h-6.43506v19.68549c0,12.47644,4.02453,20.17114,15.10083,20.17114q10.53845,0,14.89545-7.4848l.28436,6.98608h6.14184V318.363h-6.4262Z"/><path class="cls-1" d="M693.262,325.97923l-.31506-7.61621h-6.15918v39.35791H693.262V338.04851a14.06076,14.06076,0,0,1,4.30011-10.59943c2.86542-2.721,6.67554-4.08594,11.4613-4.08594v-5.49C701.36781,317.87309,696.58216,320.35783,693.262,325.97923Z"/><path class="cls-1" d="M770.66706,325.3195c-2.69458-4.65008-8.59582-7.48486-16.04571-7.48486a18.31556,18.31556,0,0,0-9.646,2.62464,18.81022,18.81022,0,0,0-6.95563,7.275,21.78924,21.78924,0,0,0,0,20.62158,18.79637,18.79637,0,0,0,16.60163,9.86041q12.32931,0,16.04571-7.48486l.24512,6.99487h6.15063V318.36839h-6.15063Zm-4.2301,23.1413a13.915,13.915,0,0,1-10.20587,4.26532,13.60239,13.60239,0,0,1-10.13593-4.2301,15.12068,15.12068,0,0,1,0-20.90619,13.60209,13.60209,0,0,1,10.13593-4.2301,13.87258,13.87258,0,0,1,10.23657,4.2301,15.02616,15.02616,0,0,1-.0307,20.871Z"/><path class="cls-1" d="M818.76594,338.04851c0,4.366-1.11975,7.89606-3.39,10.59088a11.66338,11.66338,0,0,1-9.47534,4.08594c-7.55053,0-10.6958-5.0658-10.6958-14.67682V318.363h-6.43506v19.68549c0,12.47644,4.02442,20.17114,15.10108,20.17114q10.53809,0,14.89514-7.4848l.2843,6.98608h6.14185V318.363h-6.42615Z"/><path class="cls-1" d="M870.50092,325.3195c-2.69482-4.65008-8.60034-7.48486-16.05029-7.48486a18.31541,18.31541,0,0,0-9.64587,2.62464,18.8512,18.8512,0,0,0-6.96,7.275,21.82149,21.82149,0,0,0,0,20.62158,18.80976,18.80976,0,0,0,16.60583,9.86041q12.32968,0,16.05029-7.48486l.24488,6.99487h6.14636v-53.6932h-6.39124Zm-4.23034,23.1413a13.93125,13.93125,0,0,1-10.21009,4.26532,13.60231,13.60231,0,0,1-10.136-4.2301,15.12089,15.12089,0,0,1,0-20.90619,13.60216,13.60216,0,0,1,10.136-4.2301,13.90488,13.90488,0,0,1,10.24512,4.2301,15.031,15.031,0,0,1-.035,20.871Z"/><rect class="cls-1" x="890.19868" y="318.36784" width="6.43506" height="39.35785"/><path class="cls-1" d="M893.45777,303.85313a3.87155,3.87155,0,0,0-2.86548,1.15931,3.76435,3.76435,0,0,0-1.19421,2.8302,3.90234,3.90234,0,0,0,1.19421,2.89618,3.753,3.753,0,0,0,2.86548,1.18975,3.87515,3.87515,0,0,0,2.86975-1.18975,4.02272,4.02272,0,0,0-2.86975-6.88569Z"/><path class="cls-1" d="M979.05573,317.84209q-10.52508,0-14.891,7.47607l-.28-6.95111h-6.15063V357.7249h6.43066V338.04369c0-4.37,1.11988-7.93982,3.39478-10.62555a11.72978,11.72978,0,0,1,9.47534-4.051c7.54175,0,10.6958,5.0658,10.6958,14.67652v19.68121h6.43469V338.04369C994.16535,325.59825,990.14082,317.84209,979.05573,317.84209Z"/><path class="cls-1" d="M1023.68134,323.26363a13.36372,13.36372,0,0,1,11.74585,6.46118l5.72608-2.48474a18.6,18.6,0,0,0-7.23535-6.88568,21.16624,21.16624,0,0,0-10.23658-2.5152,21.59757,21.59757,0,0,0-10.35009,2.5152,20.1286,20.1286,0,0,0-.03492,35.34643,21.72533,21.72533,0,0,0,10.385,2.51544,21.26612,21.26612,0,0,0,10.23658-2.51544,18.31282,18.31282,0,0,0,7.23535-6.855l-5.72608-2.51544a13.44536,13.44536,0,0,1-11.74585,6.4964,13.65213,13.65213,0,0,1-10.17944-4.25653,15.35609,15.35609,0,0,1,0-21.08539A13.65364,13.65364,0,0,1,1023.68134,323.26363Z"/><path class="cls-1" d="M1098.94557,350.48814a3.86489,3.86489,0,1,0-.04029,7.72968q.02014.00009.04029,0a3.86491,3.86491,0,0,0,0-7.72968Z"/><path class="cls-1" d="M1069.10969,317.83916a21.61748,21.61748,0,0,0-10.37647,2.5152,20.18936,20.18936,0,0,0,0,35.34643,21.71639,21.71639,0,0,0,10.37647,2.51544,21.38346,21.38346,0,0,0,11.26031-3.11035,19.13717,19.13717,0,0,0,6.17688-6.28625l-5.18383-2.90046a13.77886,13.77886,0,0,1-4.17359,4.64155,14.08635,14.08635,0,0,1-8.07971,2.41021,13.75236,13.75236,0,0,1-9.2959-3.42962,14.27632,14.27632,0,0,1-4.86-8.87134h34.74255a22.80659,22.80659,0,0,0-5.55554-16.4046A20.57708,20.57708,0,0,0,1069.10969,317.83916Zm-14.19544,17.58551a14.28976,14.28976,0,0,1,4.79468-8.91968,13.83094,13.83094,0,0,1,9.40076-3.39014,14.0064,14.0064,0,0,1,9.47552,3.39014,14.41012,14.41012,0,0,1,4.78992,8.91968Z"/><path class="cls-1" d="M927.3451,317.83916a21.61745,21.61745,0,0,0-10.37646,2.5152,20.18935,20.18935,0,0,0,0,35.34643,21.71632,21.71632,0,0,0,10.37646,2.51544,21.38359,21.38359,0,0,0,11.26026-3.11035,19.13794,19.13794,0,0,0,6.17688-6.28625l-5.18384-2.90046a13.86806,13.86806,0,0,1-4.17359,4.64155,14.08635,14.08635,0,0,1-8.07971,2.41021,13.75236,13.75236,0,0,1-9.2959-3.42962,14.27593,14.27593,0,0,1-4.86-8.87134h34.74243a22.786,22.786,0,0,0-5.55542-16.4046A20.57741,20.57741,0,0,0,927.3451,317.83916Zm-14.19543,17.58551a14.2901,14.2901,0,0,1,4.79455-8.91968,13.83113,13.83113,0,0,1,9.40088-3.39014,13.99817,13.99817,0,0,1,9.47534,3.39014,14.40865,14.40865,0,0,1,4.78992,8.91968Z"/><path class="cls-1" d="M349.03733,317.83916a21.64846,21.64846,0,0,0-10.381,2.5152,20.19336,20.19336,0,0,0,0,35.34643,21.74729,21.74729,0,0,0,10.381,2.51544,21.38317,21.38317,0,0,0,11.26-3.11035,19.17548,19.17548,0,0,0,6.17682-6.28625l-5.19238-2.90046a13.84443,13.84443,0,0,1-4.16468,4.64155,14.08635,14.08635,0,0,1-8.07971,2.41021,13.75134,13.75134,0,0,1-9.296-3.42962,14.27494,14.27494,0,0,1-4.86023-8.87134H369.624a22.78792,22.78792,0,0,0-5.55579-16.4046A20.57672,20.57672,0,0,0,349.03733,317.83916ZM334.8419,335.42467a14.28722,14.28722,0,0,1,4.79455-8.91968,13.81548,13.81548,0,0,1,9.40088-3.39014,13.99765,13.99765,0,0,1,9.475,3.39014,14.40812,14.40812,0,0,1,4.79028,8.91968Z"/><path class="cls-1" d="M356.42576,240.46246H300.274V141.64123a8.43955,8.43955,0,0,0-8.43624-8.44287h-7.95952V253.74793h72.54749Z"/><path class="cls-1" d="M388.99857,167.53125a8.43954,8.43954,0,0,0-8.43624-8.44281h-7.0322V253.745h15.46844Z"/><path class="cls-1" d="M381.31211,143.6242a9.31157,9.31157,0,0,0,6.89429-2.8609,9.48623,9.48623,0,0,0,2.81287-6.89422,9.60492,9.60492,0,0,0-9.54123-9.66818q-.083-.00056-.16593.00033a9.45746,9.45746,0,0,0-6.89422,2.77356,9.233,9.233,0,0,0-2.82166,6.85473,9.50706,9.50706,0,0,0,2.82166,6.93378A9.2976,9.2976,0,0,0,381.31211,143.6242Z"/><path class="cls-1" d="M464.23826,253.74661,499.71153,159.09H489.19517a8.45434,8.45434,0,0,0-7.918,5.50769l-27.971,75.44792-28.1283-75.461a8.43638,8.43638,0,0,0-7.91369-5.49463h-10.4419l35.47327,94.65661Z"/><path class="cls-1" d="M695.63233,226.68012a21.19529,21.19529,0,0,0-1.38678-8.32483,18.70918,18.70918,0,0,0-4.16015-6.39124,27.78807,27.78807,0,0,0-7.18317-4.96088,63.73029,63.73029,0,0,0-9.58453-3.867q-5.092-1.59439-12.40192-3.27663c-2.46283-.56421-4.48376-1.0672-6.05-1.51794-1.57483-.4419-3.294-.958-5.17932-1.55286a32.56733,32.56733,0,0,1-4.53638-1.72375,29.49583,29.49583,0,0,1-3.44293-1.97717,9.6588,9.6588,0,0,1-2.64654-2.43238,12.3268,12.3268,0,0,1-1.51789-2.94848,11.064,11.064,0,0,1-.58178-3.74018,11.50416,11.50416,0,0,1,5.96667-10.42022q5.965-3.61542,14.79053-3.61762a23.7518,23.7518,0,0,1,12.78241,3.45154q5.5514,3.44467,7.056,8.40356l15.30212-1.42633a24.86887,24.86887,0,0,0-11.46557-16.77191q-9.21956-5.76123-23.33832-5.76141-16.64722,0-26.56665,6.98187-9.92121,6.9687-9.91693,19.67236,0,11.25377,7.31848,16.60138,7.30993,5.34148,25.72241,9.70709,12.35586,2.78227,18.91113,6.60131,6.55545,3.82561,6.55756,10.45953a12.3131,12.3131,0,0,1-6.17676,10.93213q-6.16818,3.94325-15.508,3.95a32.82819,32.82819,0,0,1-15.05274-3.447,17.04736,17.04736,0,0,1-8.9942-10.2539L619.047,230.79642A25.964,25.964,0,0,0,632,248.662q10.49918,6.08926,26.39606,6.08954,16.72613,0,26.86407-7.48059Q695.37883,239.79043,695.63233,226.68012Z"/><path class="cls-1" d="M757.14332,252.81871l37.153-93.73352H783.58326a8.44059,8.44059,0,0,0-7.93988,5.57764l-27.41547,75.79779L720.7516,164.65833a8.4602,8.4602,0,0,0-7.93982-5.57312H702.08521L740.24458,256.686q-2.2641,6.56187-10.25849,10.4726-7.97241,3.89767-20.00482,4.15137l.92755,11.5227q17.4018.66922,28.53955-6.89422Q750.58356,268.3725,757.14332,252.81871Z"/><path class="cls-1" d="M855.08125,238.78009q-6.16809,3.94328-15.50782,3.95a32.82742,32.82742,0,0,1-15.05273-3.447,17.04806,17.04806,0,0,1-8.99439-10.2539l-15.302,1.76727a25.96368,25.96368,0,0,0,12.953,17.8656q10.49908,6.08927,26.39611,6.08954,16.726,0,26.864-7.48059,10.11878-7.48059,10.37219-20.59088a21.19323,21.19323,0,0,0-1.38684-8.32483,18.70721,18.70721,0,0,0-4.16016-6.39124,27.78754,27.78754,0,0,0-7.1831-4.96088,63.92147,63.92147,0,0,0-9.58448-3.867q-5.09216-1.59439-12.40209-3.27663c-2.46265-.56421-4.48365-1.0672-6.04993-1.51794-1.57483-.4419-3.29395-.958-5.17932-1.55286a32.571,32.571,0,0,1-4.53638-1.72375,29.50078,29.50078,0,0,1-3.44287-1.97717,9.6576,9.6576,0,0,1-2.64649-2.43238A12.32639,12.32639,0,0,1,818.72,187.707a11.06407,11.06407,0,0,1-.58191-3.74018,11.50428,11.50428,0,0,1,5.9668-10.42022q5.965-3.61542,14.79053-3.61762a23.75235,23.75235,0,0,1,12.78247,3.45154q5.55138,3.44467,7.0559,8.40356l15.30225-1.42633A24.86913,24.86913,0,0,0,862.5705,163.5858q-9.21972-5.76123-23.33837-5.76141-16.64723,0-26.56666,6.98187-9.9212,6.9687-9.917,19.67236,0,11.25377,7.31861,16.60138,7.30993,5.34148,25.72241,9.70709,12.35577,2.78227,18.91113,6.60131,6.55536,3.82561,6.5575,10.45953A12.313,12.313,0,0,1,855.08125,238.78009Z"/><path class="cls-1" d="M909.80463,247.69312q5.68269,7.15256,19.12549,7.14361a99.05216,99.05216,0,0,0,16.55786-1.59668V240.37462a42.67282,42.67282,0,0,1-14.62414.761c-4.09473-.23175-6.98608-1.614-8.69678-4.16441q-2.57208-3.81923-2.56775-11.38709V171.366h17.4502a8.44331,8.44331,0,0,0,8.43847-8.44819v-3.83123H919.59931v-13.2417a8.4394,8.4394,0,0,0-8.436-8.44281h-7.03253v21.68451H889.66865V171.366h14.46216v54.63379Q904.13081,240.54082,909.80463,247.69312Z"/><path class="cls-1" d="M1318.60572,218.35339a18.62149,18.62149,0,0,0-4.1604-6.39123,27.96279,27.96279,0,0,0-7.18286-4.95636,63.70763,63.70763,0,0,0-9.58032-3.86694q-5.09875-1.60126-12.40186-3.28095-3.69434-.83981-6.0542-1.50934c-1.57519-.45044-3.28979-.96679-5.17968-1.5617a32.92714,32.92714,0,0,1-4.532-1.71918,30.16694,30.16694,0,0,1-3.447-1.97717,9.79054,9.79054,0,0,1-2.64673-2.43665,12.21134,12.21134,0,0,1-1.51806-2.94421,11.0577,11.0577,0,0,1-.58179-3.7359,11.51263,11.51263,0,0,1,5.967-10.42884q5.97106-3.61569,14.79456-3.609a23.72283,23.72283,0,0,1,12.77819,3.44269q5.55139,3.45151,7.05616,8.4079l15.30639-1.42609a24.86872,24.86872,0,0,0-11.47-16.77625q-9.21936-5.7548-23.33386-5.75708-16.64721,0-26.56665,6.97754-9.92139,6.97522-9.92151,19.67243,0,11.26646,7.31885,16.60559,7.30957,5.33469,25.72656,9.70288,12.356,2.78229,18.91126,6.60107,6.55516,3.82556,6.553,10.46833a12.311,12.311,0,0,1-6.17688,10.92779q-6.16809,3.94337-15.50756,3.95a32.89888,32.89888,0,0,1-15.0531-3.447,17.03616,17.03616,0,0,1-8.98963-10.25848l-15.29785,1.76733a25.91977,25.91977,0,0,0,12.94446,17.86585q10.4989,6.08927,26.39612,6.09375,16.73254,0,26.864-7.48511,10.11841-7.48014,10.37646-20.59088A21.26993,21.26993,0,0,0,1318.60572,218.35339Z"/><path class="cls-1" d="M585.01075,247.43543a46.17811,46.17811,0,0,0,15.29358-14.89093L587.75825,225.532a33.49112,33.49112,0,0,1-10.35034,11.024,34.0508,34.0508,0,0,1-19.423,5.75677,33.20582,33.20582,0,0,1-22.39764-8.23724,34.47979,34.47979,0,0,1-11.64075-21.35639h83.55838a57.55187,57.55187,0,0,0-3.15838-22.02151,49.88924,49.88924,0,0,0-10.25849-17.4021A47.7719,47.7719,0,0,0,578.07728,161.983a49.28509,49.28509,0,0,0-20.09241-4.15589,51.8428,51.8428,0,0,0-24.96112,6.09833,48.91659,48.91659,0,0,0-18.83133,66.56612q.30949.55368.63327,1.09922a46.72191,46.72191,0,0,0,18.198,17.27527,52.1629,52.1629,0,0,0,24.96112,6.05426A51.0464,51.0464,0,0,0,585.01075,247.43543Zm-49.67721-68.711a35.49612,35.49612,0,0,1,45.399,0,34.513,34.513,0,0,1,11.55316,21.38715h-68.4266A34.06473,34.06473,0,0,1,535.33354,178.72447Z"/><path class="cls-1" d="M1036.49726,225.532a33.4926,33.4926,0,0,1-10.35,11.024,34.05155,34.05155,0,0,1-19.423,5.75677,33.20547,33.20547,0,0,1-22.3977-8.23724,34.48032,34.48032,0,0,1-11.64075-21.35639H1056.244a57.54581,57.54581,0,0,0-3.15833-22.02148,49.889,49.889,0,0,0-10.2583-17.4021,47.77021,47.77021,0,0,0-16.011-11.31256,49.28286,49.28286,0,0,0-20.092-4.15589,51.83185,51.83185,0,0,0-24.96142,6.09833,48.917,48.917,0,0,0-18.83087,66.56683q.30925.55335.63287,1.09852A46.72368,46.72368,0,0,0,981.763,248.866a52.15215,52.15215,0,0,0,24.96142,6.05426,51.0472,51.0472,0,0,0,27.02588-7.48486,46.1792,46.1792,0,0,0,15.29322-14.89093ZM984.0727,178.72449a35.49614,35.49614,0,0,1,45.399,0,34.51244,34.51244,0,0,1,11.5534,21.38713H972.59834a34.067,34.067,0,0,1,11.47442-21.38715Z"/><path class="cls-1" d="M1222.10023,184.77928c-2.84778-12.98376-10.0398-26.95166-31.21253-26.95166-20.63488,0-31.698,8.96778-36.5581,20.54285-3.93714-11.09821-12.10449-20.54285-29.23523-20.54285-22.98377,0-29.42761,11.06751-33.01013,18.39051l-.36328-9.02466a8.4557,8.4557,0,0,0-8.45166-8.1059h-6.6886v94.61705h15.4685V206.37193c0-12.32745,4.9867-34.49334,26.18592-35.23266,22.12207-.76978,24.44506,18.96374,24.44506,35.47778v47.08757h15.46839v-47.2713c0-15.25855,5.713-34.96143,26.79846-35.31574,17.135-.86187,21.76343,13.6222,23.08887,24.29609a84.23,84.23,0,0,1,.65625,11.01965l.00439.00427v47.267h15.38513V206.37193h-.02624A95.404,95.404,0,0,0,1222.10023,184.77928Z"/><path class="cls-2" d="M238.06568,227.55663a17.63931,17.63931,0,0,0-9.99957-14.30814l-.64626-.31024V115.40312a19.54439,19.54439,0,0,0-19.528-19.5161h-.00154a19.34219,19.34219,0,0,0-11.63649,3.87925L127.15194,151.3029a17.77431,17.77431,0,0,0,2.93447,30.272l.64626.31026v97.53506a19.54448,19.54448,0,0,0,19.5281,19.51612h.00145a19.34279,19.34279,0,0,0,11.63656-3.87928l69.10181-51.53662A17.64216,17.64216,0,0,0,238.06568,227.55663Zm-102.63333-65.151L204.533,110.86969a5.57524,5.57524,0,0,1,3.3583-1.13179,5.65906,5.65906,0,0,1,5.67807,5.64q0,.0126,0,.02519V206.288l-77.48938-37.1991a3.92406,3.92406,0,0,1-.64771-6.68325Zm87.28781,70.012-69.10059,51.536a5.57572,5.57572,0,0,1-3.35839,1.13177,5.659,5.659,0,0,1-5.67806-5.64q-.00006-.01262,0-.02521v-90.885l77.48936,37.19922a3.92408,3.92408,0,0,1,.64774,6.68317Z"/></svg>