<svg id="Ebene_1" data-name="Ebene 1" xmlns="http://www.w3.org/2000/svg" viewBox="0 0 1440 365"><defs><style>.cls-1{fill:#fff;}</style></defs><path class="cls-1" d="M300.274,126.97458a8.43955,8.43955,0,0,0-8.43624-8.44287h-7.95952v120.5495h72.54749v-13.2854H300.274Z"/><path class="cls-1" d="M380.5557,144.42179h-7.02557v94.65649h15.46844V152.86463a8.43952,8.43952,0,0,0-8.43621-8.44284Z"/><path class="cls-1" d="M381.31211,109.53457a9.45746,9.45746,0,0,0-6.89422,2.77356,9.23307,9.23307,0,0,0-2.82166,6.85475,9.50705,9.50705,0,0,0,2.82166,6.93377,9.73739,9.73739,0,0,0,13.77075.01774l.01776-.01774a9.48623,9.48623,0,0,0,2.81287-6.89422,9.60493,9.60493,0,0,0-9.54126-9.66818Q381.39506,109.5337,381.31211,109.53457Z"/><path class="cls-1" d="M481.2772,149.93107l-27.97107,75.448L425.17783,149.918a8.43637,8.43637,0,0,0-7.91369-5.49462h-10.4419L442.29551,239.08h21.94275l35.47327-94.65663H489.19517A8.45435,8.45435,0,0,0,481.2772,149.93107Z"/><path class="cls-1" d="M690.0854,197.2974a27.78783,27.78783,0,0,0-7.18317-4.96088,63.73029,63.73029,0,0,0-9.58453-3.867q-5.092-1.59441-12.40192-3.27661c-2.46283-.56421-4.48376-1.0672-6.05-1.518-1.57483-.44189-3.294-.958-5.17932-1.55285a32.56738,32.56738,0,0,1-4.53638-1.72376,29.49583,29.49583,0,0,1-3.44293-1.97717,9.6588,9.6588,0,0,1-2.64654-2.43238,12.32623,12.32623,0,0,1-1.51789-2.94848,11.064,11.064,0,0,1-.58178-3.74017,11.50416,11.50416,0,0,1,5.96667-10.42023q5.965-3.61542,14.79053-3.61762a23.7518,23.7518,0,0,1,12.78241,3.45154q5.5514,3.44467,7.056,8.40357l15.30212-1.42633a24.86886,24.86886,0,0,0-11.46557-16.77192q-9.21956-5.76123-23.33832-5.76141-16.64722,0-26.56665,6.98187-9.92121,6.96874-9.91693,19.67237,0,11.25375,7.31848,16.60138,7.30993,5.34143,25.72241,9.70709,12.35586,2.78226,18.91113,6.60132,6.55545,3.82556,6.55756,10.45953a12.31322,12.31322,0,0,1-6.17676,10.93213q-6.16818,3.94334-15.508,3.95a32.82832,32.82832,0,0,1-15.05274-3.447,17.04665,17.04665,0,0,1-8.9942-10.25391L619.047,216.12986A25.96414,25.96414,0,0,0,632,233.99546q10.49918,6.08915,26.39606,6.08948,16.72613,0,26.86407-7.48046,10.11869-7.48059,10.37219-20.591a21.19527,21.19527,0,0,0-1.38678-8.32482A18.70943,18.70943,0,0,0,690.0854,197.2974Z"/><path class="cls-1" d="M775.64332,149.99619l-27.41541,75.79767L720.7516,149.99164a8.46022,8.46022,0,0,0-7.93982-5.57312H702.08521l38.15937,97.60077q-2.2641,6.562-10.25849,10.47254-7.97241,3.89776-20.00482,4.15136l.92755,11.52271q17.4018.66943,28.53955-6.89417,11.1351-7.56591,17.695-23.11975l37.153-93.73346H783.58326A8.44058,8.44058,0,0,0,775.64332,149.99619Z"/><path class="cls-1" d="M871.26264,197.2974a27.78754,27.78754,0,0,0-7.1831-4.96088,63.92147,63.92147,0,0,0-9.58448-3.867q-5.09216-1.59441-12.40209-3.27661c-2.46265-.56421-4.48365-1.0672-6.04993-1.518-1.57483-.44189-3.29395-.958-5.17932-1.55285a32.57354,32.57354,0,0,1-4.53638-1.72376,29.49935,29.49935,0,0,1-3.44287-1.97717,9.65744,9.65744,0,0,1-2.64649-2.43238,12.32621,12.32621,0,0,1-1.51794-2.94848,11.06405,11.06405,0,0,1-.58191-3.74017,11.50429,11.50429,0,0,1,5.9668-10.42023q5.965-3.61542,14.79053-3.61762a23.75235,23.75235,0,0,1,12.78247,3.45154q5.55138,3.44467,7.0559,8.40357l15.30225-1.42633a24.86914,24.86914,0,0,0-11.46558-16.77193q-9.21972-5.76123-23.33837-5.76141-16.64723,0-26.56666,6.98187-9.9212,6.96871-9.917,19.67238,0,11.25375,7.31861,16.60138,7.30993,5.34143,25.72241,9.70709,12.35577,2.78226,18.91113,6.60132,6.55536,3.82556,6.5575,10.45953a12.313,12.313,0,0,1-6.17688,10.93213q-6.16809,3.94334-15.50782,3.95a32.82755,32.82755,0,0,1-15.05273-3.447,17.04741,17.04741,0,0,1-8.99439-10.25391l-15.302,1.76734a25.96372,25.96372,0,0,0,12.953,17.8656q10.49908,6.08915,26.39611,6.08948,16.726,0,26.864-7.48046,10.11878-7.48059,10.37219-20.591a21.19212,21.19212,0,0,0-1.38684-8.32482A18.70746,18.70746,0,0,0,871.26264,197.2974Z"/><path class="cls-1" d="M919.59931,131.1782a8.43939,8.43939,0,0,0-8.436-8.44281h-7.03253V144.4199H889.66865v12.2794h14.46216v54.63385q0,14.541,5.67382,21.69336,5.68269,7.15246,19.12549,7.14355a99.05216,99.05216,0,0,0,16.55786-1.59668V225.70792a42.66984,42.66984,0,0,1-14.62414.761c-4.09473-.23169-6.98608-1.614-8.69678-4.16443q-2.57208-3.81921-2.56775-11.38708V156.6993h17.4502a8.44332,8.44332,0,0,0,8.43847-8.4482v-3.8312H919.59931Z"/><path class="cls-1" d="M1318.60572,203.68674a18.6213,18.6213,0,0,0-4.1604-6.39123,27.96254,27.96254,0,0,0-7.18286-4.95636,63.7069,63.7069,0,0,0-9.58032-3.867q-5.09875-1.60128-12.40186-3.28094-3.69434-.83983-6.0542-1.50934c-1.57519-.45044-3.28979-.9668-5.17968-1.56171a32.9258,32.9258,0,0,1-4.532-1.71917,30.16851,30.16851,0,0,1-3.447-1.97718,9.79051,9.79051,0,0,1-2.64673-2.43664,12.21122,12.21122,0,0,1-1.51806-2.94422,11.05766,11.05766,0,0,1-.58179-3.7359,11.51261,11.51261,0,0,1,5.967-10.42883q5.97106-3.61569,14.79456-3.609a23.72291,23.72291,0,0,1,12.77819,3.44268q5.55139,3.45155,7.05616,8.4079l15.30639-1.42608a24.86865,24.86865,0,0,0-11.47-16.77625q-9.21936-5.75483-23.33386-5.75708-16.64721,0-26.56665,6.97752-9.92139,6.97522-9.92151,19.67243,0,11.2665,7.31885,16.60559,7.30957,5.33466,25.72656,9.70288,12.356,2.78231,18.91126,6.60107,6.55516,3.82556,6.553,10.46833a12.31114,12.31114,0,0,1-6.17688,10.92785q-6.16809,3.94333-15.50756,3.95a32.89761,32.89761,0,0,1-15.0531-3.447,17.03586,17.03586,0,0,1-8.98963-10.25842l-15.29785,1.76734a25.91933,25.91933,0,0,0,12.94446,17.86584q10.4989,6.08939,26.39612,6.09375,16.73254,0,26.864-7.48511,10.11841-7.4802,10.37646-20.59082A21.27046,21.27046,0,0,0,1318.60572,203.68674Z"/><path class="cls-1" d="M594.088,158.62888a47.7719,47.7719,0,0,0-16.01074-11.31256,49.28492,49.28492,0,0,0-20.09241-4.15588,51.84268,51.84268,0,0,0-24.96112,6.09832,48.91659,48.91659,0,0,0-18.83133,66.56612q.30949.55369.63327,1.09923a46.72247,46.72247,0,0,0,18.19806,17.27527,52.1635,52.1635,0,0,0,24.96112,6.0542,51.04625,51.04625,0,0,0,27.02588-7.48487,46.17706,46.17706,0,0,0,15.29358-14.89087l-12.54608-7.01245a33.49086,33.49086,0,0,1-10.35034,11.02393,34.05057,34.05057,0,0,1-19.423,5.75683,33.20572,33.20572,0,0,1-22.39764-8.2373,34.47974,34.47974,0,0,1-11.64075-21.35639h83.55838a57.55175,57.55175,0,0,0-3.15838-22.02148A49.89042,49.89042,0,0,0,594.088,158.62888Zm-70.22888,26.816a34.0646,34.0646,0,0,1,11.4744-21.387,35.49607,35.49607,0,0,1,45.399,0,34.51285,34.51285,0,0,1,11.55316,21.38708Z"/><path class="cls-1" d="M1042.8274,158.62888a47.77021,47.77021,0,0,0-16.011-11.31256,49.28268,49.28268,0,0,0-20.092-4.15588,51.83178,51.83178,0,0,0-24.96142,6.09832,48.917,48.917,0,0,0-18.83087,66.56684q.30926.55334.63287,1.09851a46.7244,46.7244,0,0,0,18.198,17.27527,52.15261,52.15261,0,0,0,24.96142,6.0542,51.04719,51.04719,0,0,0,27.02588-7.48487,46.17712,46.17712,0,0,0,15.29322-14.89087l-12.54615-7.01245a33.49235,33.49235,0,0,1-10.35,11.02393,34.05146,34.05146,0,0,1-19.423,5.75683,33.20559,33.20559,0,0,1-22.3977-8.2373A34.48,34.48,0,0,1,972.686,198.05246h83.55811a57.54564,57.54564,0,0,0-3.15833-22.02148A49.889,49.889,0,0,0,1042.8274,158.62888Zm-70.229,26.816a34.06718,34.06718,0,0,1,11.47436-21.38708,35.49609,35.49609,0,0,1,45.399,0,34.51258,34.51258,0,0,1,11.55334,21.38708Z"/><path class="cls-1" d="M1222.10023,170.11263c-2.84778-12.98376-10.0398-26.95166-31.21253-26.95166-20.63488,0-31.698,8.96777-36.5581,20.54285-3.93714-11.09821-12.10449-20.54285-29.23523-20.54285-22.98377,0-29.42761,11.0675-33.01013,18.39052l-.36328-9.02466a8.45571,8.45571,0,0,0-8.45166-8.1059h-6.6886V239.038h15.4685V191.7053c0-12.32746,4.9867-34.49335,26.18592-35.23267,22.12207-.76977,24.44506,18.96375,24.44506,35.47778V239.038h15.46839V191.7667c0-15.25855,5.713-34.96143,26.79846-35.31574,17.135-.86187,21.76343,13.6222,23.08887,24.29608a84.23023,84.23023,0,0,1,.65625,11.01966l.00439.00427v47.267h15.38513v-47.3327h-.02624A95.4039,95.4039,0,0,0,1222.10023,170.11263Z"/><path class="cls-1" d="M238.06568,212.88993a17.6393,17.6393,0,0,0-9.99957-14.30814l-.64626-.31025V100.73648a19.54439,19.54439,0,0,0-19.528-19.51611h-.00154a19.34221,19.34221,0,0,0-11.63649,3.87927l-69.10188,51.5366a17.77432,17.77432,0,0,0,2.93447,30.272l.64626.31024v97.53508a19.54445,19.54445,0,0,0,19.5281,19.51607h.00145a19.343,19.343,0,0,0,11.63656-3.87924l69.10181-51.53663A17.64218,17.64218,0,0,0,238.06568,212.88993ZM135.43235,147.739,204.533,96.20308a5.57524,5.57524,0,0,1,3.3583-1.13179,5.65906,5.65906,0,0,1,5.67807,5.64q0,.0126,0,.02519v90.88489l-77.48938-37.19913a3.92408,3.92408,0,0,1-.64771-6.68321Zm87.28781,70.012-69.1006,51.536a5.57579,5.57579,0,0,1-3.35839,1.13178,5.659,5.659,0,0,1-5.67806-5.63988q0-.01263,0-.0253v-90.885l77.48935,37.19921a3.92406,3.92406,0,0,1,.64775,6.68323Z"/></svg>